<?xml version="1.0" encoding="utf-8"?>
<!-- Generator: Adobe Illustrator 19.2.1, SVG Export Plug-In . SVG Version: 6.00 Build 0)  -->
<svg version="1.1" id="Layer_1" xmlns="http://www.w3.org/2000/svg" xmlns:xlink="http://www.w3.org/1999/xlink" x="0px" y="0px"
	 viewBox="0 0 384.1 359.8" style="enable-background:new 0 0 384.1 359.8;" xml:space="preserve">
<style type="text/css">
	.st0{fill:#EBEBEB;}
	.st1{fill:#F5F5F5;}
	.st2{fill:#F0F0F0;}
	.st3{fill:#E6E6E6;}
	.st4{fill:#cb9408;}
	.st5{opacity:0.3;}
	.st6{opacity:0.7;fill:#FFFFFF;enable-background:new    ;}
	.st7{opacity:0.2;fill:#cb9408;enable-background:new    ;}
	.st8{opacity:0.3;fill:#FFFFFF;enable-background:new    ;}
	.st9{opacity:0.4;fill:#cb9408;enable-background:new    ;}
	.st10{opacity:0.2;enable-background:new    ;}
	.st11{opacity:0.2;fill:#FFFFFF;enable-background:new    ;}
	.st12{opacity:0.3;fill:#cb9408;enable-background:new    ;}
	.st13{opacity:0.8;fill:#FFFFFF;enable-background:new    ;}
	.st14{fill:#705711;}
	.st15{fill:#FFFFFF;}
	.st16{opacity:0.5;fill:#FFFFFF;enable-background:new    ;}
	.st17{opacity:0.6;fill:#cb9408;enable-background:new    ;}
	.st18{opacity:0.5;fill:#cb9408;enable-background:new    ;}
	.st19{opacity:0.6;fill:#FFFFFF;enable-background:new    ;}
</style>
<g>
	<polygon class="st0" points="55.3,100.6 56.9,103.8 60.6,104.4 57.9,106.9 58.6,110.5 55.3,108.8 52.1,110.5 52.7,106.9 
		50.1,104.4 53.7,103.8 	"/>
	<polygon class="st1" points="379,254.8 380.5,258.1 384.1,258.6 381.5,261.1 382.1,264.7 379,263 375.8,264.7 376.4,261.1 
		373.8,258.6 377.4,258.1 	"/>
	<polygon class="st1" points="314.9,349.9 316.5,353.1 320,353.7 317.5,356.2 318,359.8 314.9,358.1 311.6,359.8 312.3,356.2 
		309.6,353.7 313.3,353.1 	"/>
	<path class="st0" d="M168.1,42.5l0.6,1.2l1.4,0.2c0.2,0,0.4,0.2,0.3,0.4c0,0.1-0.1,0.2-0.1,0.2l-1,0.9l0.2,1.3
		c0,0.2-0.1,0.4-0.3,0.5c-0.1,0-0.2,0-0.2,0l-1.2-0.6l-1.2,0.6c-0.2,0.1-0.4,0-0.6-0.2c0-0.1-0.1-0.2,0-0.2l0.2-1.3l-1-0.9
		c-0.2-0.2-0.2-0.4,0-0.6c0.1-0.1,0.2-0.1,0.2-0.1l1.3-0.2l0.6-1.2c0.1-0.2,0.3-0.3,0.5-0.3C168.1,42.2,168.1,42.3,168.1,42.5z"/>
	<path class="st1" d="M3,334.3l0.6,1.2l1.3,0.2c0.2,0,0.4,0.2,0.4,0.5c0,0.1-0.1,0.2-0.1,0.2l-1,0.9l0.2,1.3c0,0.2-0.1,0.4-0.3,0.5
		c-0.1,0-0.2,0-0.2,0l-1.2-0.6l-1.2,0.6c-0.2,0.1-0.4,0-0.6-0.2c0-0.1-0.1-0.2,0-0.2l0.2-1.3l-1-0.9c-0.2-0.2-0.2-0.4,0-0.6
		c0.1-0.1,0.1-0.1,0.2-0.1l1.3-0.2l0.6-1.3c0.1-0.2,0.3-0.3,0.5-0.3C2.8,334.1,2.9,334.2,3,334.3z"/>
	<path class="st0" d="M30.1,29.6l0.6,1.2L32,31c0.2,0,0.4,0.2,0.3,0.5c0,0.1-0.1,0.2-0.1,0.2l-1,1l0.2,1.3c0,0.2-0.1,0.4-0.3,0.5
		c-0.1,0-0.2,0-0.3,0l-1.2-0.6l-1.2,0.6c-0.2,0.1-0.4,0-0.5-0.1c0-0.1-0.1-0.2,0-0.3l0.2-1.3l-1-1c-0.2-0.2-0.2-0.4,0-0.6
		c0.1-0.1,0.1-0.1,0.2-0.1l1.3-0.2l0.6-1.2c0.1-0.2,0.3-0.3,0.5-0.2C29.8,29.4,29.9,29.5,30.1,29.6z"/>
	<path class="st0" d="M28.3,270.6c0,0.7-0.6,1.3-1.3,1.3c-0.7,0-1.3-0.6-1.3-1.3s0.6-1.3,1.3-1.3l0,0
		C27.8,269.3,28.3,269.9,28.3,270.6z"/>
	<path class="st0" d="M218,104.2c0,0.7-0.6,1.3-1.3,1.3c-0.7,0-1.3-0.6-1.3-1.3s0.6-1.3,1.3-1.3l0,0
		C217.4,102.9,218,103.5,218,104.2L218,104.2z"/>
	<path class="st1" d="M148.9,30.7c0,0.7-0.6,1.3-1.3,1.3s-1.3-0.6-1.3-1.3c0-0.7,0.6-1.3,1.3-1.3C148.4,29.4,148.9,30,148.9,30.7z"
		/>
	<ellipse transform="matrix(0.9733 -0.2297 0.2297 0.9733 -75.8762 43.603)" class="st2" cx="149.4" cy="347.7" rx="7.4" ry="7.4"/>
	<path class="st3" d="M146.9,343.4c-1.5,0-3,0.5-4.2,1.4c-1.6,3.7,0.1,8,3.8,9.7c2.2,0.9,4.7,0.8,6.7-0.4l0,0
		c1.9-3.5,0.6-7.8-2.9-9.7C149.3,343.7,148.1,343.4,146.9,343.4L146.9,343.4z"/>
	<g id="freepik--404--inject-21">
		<path class="st4" d="M89.9,219.9H29.1v-27.5l60.8-72.3H119V194h15.1v25.9H119v22.5H89.9L89.9,219.9L89.9,219.9z M89.9,194v-37.8
			L57.8,194H89.9z"/>
		<path class="st4" d="M144.6,181.8c0-22.9,4.1-38.9,12.3-48s20.8-13.7,37.6-13.7c8.1,0,14.7,1,19.9,3c4.7,1.7,9,4.4,12.7,7.8
			c3.1,2.9,5.7,6.3,7.8,10.1c2,3.9,3.6,8.1,4.5,12.3c2.3,9.2,3.4,18.6,3.4,28c0,21.8-3.7,37.8-11.1,47.9s-20.1,15.2-38.1,15.2
			c-10.1,0-18.3-1.6-24.5-4.8c-6.3-3.3-11.6-8.2-15.3-14.2c-2.9-4.4-5.2-10.5-6.8-18.2C145.3,198.8,144.4,190.3,144.6,181.8z
			 M177.6,181.9c0,15.3,1.3,25.8,4.1,31.4c2.7,5.6,6.6,8.4,11.8,8.4c3.3,0,6.5-1.2,8.8-3.6c2.5-2.4,4.3-6.1,5.5-11.3
			c1.2-5.1,1.8-13.1,1.8-24c0-16-1.4-26.7-4.1-32.2s-6.8-8.2-12.2-8.2c-5.5,0-9.5,2.8-12,8.4C178.9,156.4,177.6,166.8,177.6,181.9z"
			/>
		<path class="st4" d="M314,219.9h-60.8v-27.5l60.9-72.3h29.1V194h15.1v25.9h-15.1v22.5H314L314,219.9L314,219.9z M314,194v-37.8
			L281.9,194H314z"/>
	</g>
	<g id="freepik--Planets--inject-21">
		<g class="st5">
			<path class="st4" d="M143.3,77.9c0,1-0.8,1.9-1.9,1.9s-1.9-0.8-1.9-1.9c0-1,0.8-1.9,1.9-1.9l0,0C142.4,76,143.3,76.9,143.3,77.9
				L143.3,77.9z"/>
			<circle class="st4" cx="15.2" cy="148.4" r="1.3"/>
			<circle class="st4" cx="233.3" cy="340.6" r="1.9"/>
			<circle class="st4" cx="278.8" cy="264.3" r="1.3"/>
			<path class="st4" d="M366.5,27.9c0,0.7-0.6,1.3-1.3,1.3c-0.7,0-1.3-0.6-1.3-1.3c0-0.7,0.6-1.3,1.3-1.3S366.5,27.2,366.5,27.9
				L366.5,27.9z"/>
			<path class="st4" d="M115.1,1.3c0,0.7-0.6,1.3-1.3,1.3s-1.3-0.6-1.3-1.3c0-0.7,0.6-1.3,1.3-1.3S114.9,0.6,115.1,1.3z"/>
			<circle class="st4" cx="220" cy="69.2" r="1.3"/>
		</g>
		<circle class="st4" cx="83.4" cy="48.7" r="21.9"/>
		<circle class="st6" cx="83.4" cy="48.7" r="21.9"/>
		<path class="st7" d="M75.9,32.1c-3,0-5.9,0.6-8.7,1.8c-8.1,9-7.5,22.8,1.5,31c6.4,5.8,15.5,7.3,23.4,3.9l0,0
			c8.1-9,7.5-22.8-1.5-31C86.6,34.2,81.4,32.1,75.9,32.1L75.9,32.1z"/>
		<path class="st7" d="M73.8,37.9c0,1.1-0.9,2-2,2s-2-0.9-2-2s0.9-2,2-2S73.8,36.8,73.8,37.9z"/>
		<path class="st7" d="M97.4,35.9c0,1.1-0.9,2-2,2s-2-0.9-2-2s0.9-2,2-2S97.4,34.8,97.4,35.9z"/>
		<path class="st7" d="M93.4,50.2c0,1.8-1.5,3.3-3.3,3.3s-3.3-1.5-3.3-3.3s1.5-3.3,3.3-3.3l0,0C91.9,46.9,93.4,48.4,93.4,50.2z"/>
		<path class="st7" d="M82.9,59.6c0,2.4-2,4.4-4.4,4.4s-4.4-2-4.4-4.4s2-4.4,4.4-4.4S82.9,57.1,82.9,59.6L82.9,59.6z"/>
		
			<ellipse transform="matrix(0.2297 -0.9733 0.9733 0.2297 -50.3349 553.3775)" class="st4" cx="324.4" cy="308.5" rx="19.2" ry="19.2"/>
		
			<ellipse transform="matrix(0.2297 -0.9733 0.9733 0.2297 -50.3349 553.3775)" class="st8" cx="324.4" cy="308.5" rx="19.2" ry="19.2"/>
		<path class="st9" d="M336.5,293.6c-10.2-3.1-20.9,2.7-24,12.8c-2.3,7.5,0.2,15.6,6.3,20.5c1.8,0.5,3.7,0.8,5.5,0.8
			c10.6,0,19.2-8.6,19.2-19.2C343.6,302.8,341,297.3,336.5,293.6L336.5,293.6z"/>
		<path class="st4" d="M306,314.3c-20.5,9.7-5.2,17.1,23.7,6.7c26.8-9.6,37-21.8,13-18C344,308.1,310.5,321.1,306,314.3z"/>
	</g>
	<g id="freepik--Astronaut--inject-21">
		<path class="st10" d="M336.4,120.1c-26.9,18.2-61.7,42.2-71.3,99.8h-2c9.4-57,42.9-81.6,69.8-99.8H336.4z"/>
		<path class="st4" d="M197.3,300.6c-17,0-33.8-7.7-42-20.2c-5.1-7.7-10.9-24,6.6-45.6l1.6,1.3c-12.4,15.3-14.6,30.6-6.4,43.2
			c10,15.3,33.6,23,53.7,17.5c20.6-5.6,33.1-23.5,34.4-49.2C249.3,159.8,296,132.7,330,113c21.2-12.3,36.5-21.1,33.1-39.8
			c-0.5-2.6-1.5-4.4-3.2-5.5c-4.4-2.9-12.9-0.9-22.7,1.4c-19.3,4.5-45.8,10.7-61.5-16.1l1.7-1c15,25.5,39.6,19.8,59.3,15.2
			c10.3-2.4,19.2-4.5,24.2-1.1c2.1,1.4,3.5,3.6,4,6.8c3.6,20.1-13,29.7-34,41.9c-33.7,19.5-79.8,46.3-83.9,133
			c-1.3,26.6-14.3,45.2-35.8,51.1C206.6,300,202,300.6,197.3,300.6z"/>
		<path class="st11" d="M197.3,300.6c-17,0-33.8-7.7-42-20.2c-5.1-7.7-10.9-24,6.6-45.6l1.6,1.3c-12.4,15.3-14.6,30.6-6.4,43.2
			c10,15.3,33.6,23,53.7,17.5c20.6-5.6,33.1-23.5,34.4-49.2C249.3,159.8,296,132.7,330,113c21.2-12.3,36.5-21.1,33.1-39.8
			c-0.5-2.6-1.5-4.4-3.2-5.5c-4.4-2.9-12.9-0.9-22.7,1.4c-19.3,4.5-45.8,10.7-61.5-16.1l1.7-1c15,25.5,39.6,19.8,59.3,15.2
			c10.3-2.4,19.2-4.5,24.2-1.1c2.1,1.4,3.5,3.6,4,6.8c3.6,20.1-13,29.7-34,41.9c-33.7,19.5-79.8,46.3-83.9,133
			c-1.3,26.6-14.3,45.2-35.8,51.1C206.6,300,202,300.6,197.3,300.6z"/>
		<path class="st4" d="M255,29.3c4.6,0,9.2,0.7,13.6,2.1c0,0,11,18.8,12.3,23.1c-0.5,4.2-7.6,11.2-7.6,11.2L255,29.3z"/>
		<path class="st8" d="M255,29.3c4.6,0,9.2,0.7,13.6,2.1c0,0,11,18.8,12.3,23.1c-0.5,4.2-7.6,11.2-7.6,11.2L255,29.3z"/>
		<path class="st4" d="M287.5,120.4c-4.2-5.2-8.1-10.7-11.6-16.4c-0.8-1.4-1.6-2.9-2.4-4.4c-0.4-0.9-0.8-1.7-1.2-2.6
			c-0.5-0.8-0.9-1.7-1.2-2.7c-1.2-12.7,3.1-22-1-32.2l-16.5,6.4c0,0,1.4,18.1,4.6,29c2,6.7,6.5,12.6,10.8,17.9
			c1.4,1.7,2.6,3.4,4,5.1s2.7,3.1,4,4.6c2,2.4,2.6,4.7,1.1,7.6l-0.3,0.4c-0.4,0.7,1.5,1.6,2.8,0c2-2.6,1.7-2.4,3.5-4.6
			c1.1-1.3,2.3-2.8,3.3-4C288.5,123.5,288.6,121.7,287.5,120.4z"/>
		<path class="st6" d="M287.5,120.4c-4.2-5.2-8.1-10.7-11.6-16.4c-0.8-1.4-1.6-2.9-2.4-4.4c-0.4-0.9-0.8-1.7-1.2-2.6
			c-0.5-0.8-0.9-1.7-1.2-2.7c-1.2-12.7,3.1-22-1-32.2l-16.5,6.4c0,0,1.4,18.1,4.6,29c2,6.7,6.5,12.6,10.8,17.9
			c1.4,1.7,2.6,3.4,4,5.1s2.7,3.1,4,4.6c2,2.4,2.6,4.7,1.1,7.6l-0.3,0.4c-0.4,0.7,1.5,1.6,2.8,0c2-2.6,1.7-2.4,3.5-4.6
			c1.1-1.3,2.3-2.8,3.3-4C288.5,123.5,288.6,121.7,287.5,120.4z"/>
		<path class="st12" d="M283.5,115.2c-2.6,2.8-5.5,5.3-8.7,7.5c0.4,0.5,0.9,1,1.3,1.5c3.1-2.1,6-4.6,8.5-7.5L283.5,115.2z"/>
		<path class="st12" d="M287.5,120.4l-0.1-0.1c-0.8,0.9-1.2,2-1.3,3.2c-0.1,0.8,0.1,1.6,0.4,2.4l1-1.1
			C288.5,123.5,288.5,121.7,287.5,120.4z"/>
		<path class="st4" d="M251,41.3c-1.8,2.7-3.9,5.1-6.4,7.2c-1.4,1.2-2.8,2.2-4.4,3c-0.8,0.4-1.7,0.8-2.6,1.1l-0.7,0.2l-0.2,0.1
			l-0.5,0.1c-0.3,0.1-0.6,0.1-0.9,0.1c-0.8,0.1-1.7,0-2.5-0.2c-1-0.3-2-0.7-2.9-1.3c-0.7-0.4-1.5-0.9-2.1-1.4
			c-1.3-0.9-2.4-1.9-3.6-3c-2.2-2.1-4.2-4.3-6-6.7c-0.8-1.1-0.6-2.7,0.5-3.5c0.8-0.6,2-0.7,2.8-0.1h0.1c2.4,1.5,4.7,3.1,7.1,4.5
			c1.2,0.7,2.3,1.4,3.5,1.9c0.5,0.3,1,0.5,1.6,0.7c0.3,0.1,0.7,0.2,1.1,0.3c0.1,0,0-0.1-0.4-0.1c-0.1,0-0.2,0-0.4,0l-0.2,0.1l0,0
			l0.3-0.2c0.4-0.2,0.9-0.5,1.3-0.8c0.9-0.6,1.7-1.3,2.5-2.1c1.7-1.8,3.4-3.8,4.9-5.8l0,0c1.8-2.1,5-2.2,7.1-0.4
			c1.8,1.6,2.2,4.3,0.9,6.3L251,41.3z"/>
		<path class="st6" d="M251,41.3c-1.8,2.7-3.9,5.1-6.4,7.2c-1.4,1.2-2.8,2.2-4.4,3c-0.8,0.4-1.7,0.8-2.6,1.1l-0.7,0.2l-0.2,0.1
			l-0.5,0.1c-0.3,0.1-0.6,0.1-0.9,0.1c-0.8,0.1-1.7,0-2.5-0.2c-1-0.3-2-0.7-2.9-1.3c-0.7-0.4-1.5-0.9-2.1-1.4
			c-1.3-0.9-2.4-1.9-3.6-3c-2.2-2.1-4.2-4.3-6-6.7c-0.8-1.1-0.6-2.7,0.5-3.5c0.8-0.6,2-0.7,2.8-0.1h0.1c2.4,1.5,4.7,3.1,7.1,4.5
			c1.2,0.7,2.3,1.4,3.5,1.9c0.5,0.3,1,0.5,1.6,0.7c0.3,0.1,0.7,0.2,1.1,0.3c0.1,0,0-0.1-0.4-0.1c-0.1,0-0.2,0-0.4,0l-0.2,0.1l0,0
			l0.3-0.2c0.4-0.2,0.9-0.5,1.3-0.8c0.9-0.6,1.7-1.3,2.5-2.1c1.7-1.8,3.4-3.8,4.9-5.8l0,0c1.8-2.1,5-2.2,7.1-0.4
			c1.8,1.6,2.2,4.3,0.9,6.3L251,41.3z"/>
		<path class="st4" d="M214.5,34.7l1.2,2c0,0,0.9,2.6,2.7,3.1l4.9-1.6l-0.3-0.4l0,0c-0.6-0.9-0.5-2.8-0.3-4.3s-0.6-1.6-1.1-1.2
			c-0.4,0.5-0.7,1-0.8,1.7c-0.2-0.3-0.5-0.6-0.8-0.9l-1.5-1.5c-0.6-0.6-1.7-0.7-2.3-0.1l-1.2,1.1C214.3,33.2,214.1,34,214.5,34.7z"
			/>
		<path class="st6" d="M214.5,34.7l1.2,2c0,0,0.9,2.6,2.7,3.1l4.9-1.6l-0.3-0.4l0,0c-0.6-0.9-0.5-2.8-0.3-4.3s-0.6-1.6-1.1-1.2
			c-0.4,0.5-0.7,1-0.8,1.7c-0.2-0.3-0.5-0.6-0.8-0.9l-1.5-1.5c-0.6-0.6-1.7-0.7-2.3-0.1l-1.2,1.1C214.3,33.2,214.1,34,214.5,34.7z"
			/>
		<path class="st4" d="M260,27.5c-5.4,1.4-10.6,3.6-15.3,6.5c-1.5,1-2.3,2.8-1.9,4.5c1.9,9.4,6.3,22.1,11.1,30.1l22.1-9.2
			c0.1-3.9-5.2-16.5-10.7-28.7C264.1,28.6,262.3,27,260,27.5z"/>
		<path class="st13" d="M260,27.5c-5.4,1.4-10.6,3.6-15.3,6.5c-1.5,1-2.3,2.8-1.9,4.5c1.9,9.4,6.3,22.1,11.1,30.1l22.1-9.2
			c0.1-3.9-5.2-16.5-10.7-28.7C264.1,28.6,262.3,27,260,27.5z"/>
		<path class="st12" d="M268.5,38.5l-4.4-1.5c1,2.6,4.5,5.8,7,7.7C270.4,42.8,269.5,40.7,268.5,38.5z"/>
		<path class="st4" d="M258.5,17.6c-1.8-3.5-5.8-5.2-10.5-4.8c-4,0.3-7.5,4.4-7.1,6.6s3.8,3.1,4.4,3.9l-2.8,2
			c-1.3,1-1.6,2.8-0.7,4.2l0.1,0.1c1.2,1.5,2.7,3,3.6,4.1c7.7-0.2,13.3-3.1,15.4-5.9C260,24.2,260.3,21.1,258.5,17.6z"/>
		<path class="st13" d="M258.5,17.6c-1.8-3.5-5.8-5.2-10.5-4.8c-4,0.3-7.5,4.4-7.1,6.6s3.8,3.1,4.4,3.9l-2.8,2
			c-1.3,1-1.6,2.8-0.7,4.2l0.1,0.1c1.2,1.5,2.7,3,3.6,4.1c7.7-0.2,13.3-3.1,15.4-5.9C260,24.2,260.3,21.1,258.5,17.6z"/>
		<path class="st14" d="M254.8,19.8c1.5,3.9-0.4,8.3-4.3,9.8s-8.3-0.4-9.8-4.3s0.4-8.3,4.3-9.8C248.8,14,253.1,15.9,254.8,19.8z"/>
		<path class="st4" d="M319.6,109.9c-0.1-3.3-0.3-3-0.4-5.8c-0.1-1.7-0.1-3.6-0.1-5.2c0-1.6-1.1-3-2.7-3.3c-1.3-0.3-2.6-0.5-4-0.8
			c-1.7-0.4-3.4-0.8-5.1-1.3c-1.3-0.4-2.6-0.8-3.9-1.3s-2.7-1-4.1-1.6c-1.6-0.7-3.1-1.4-4.7-2.1c-1.7-0.8-3.4-1.7-5.1-2.6
			c-6.6-10.9-6.7-18.1-13.8-26.5l-15.2,6.9c0,0,11.1,19.8,18.7,28.1c4.4,4.8,11.2,7,17.3,8.6c4.4,1.1,8.9,2,13.4,2.8
			c1.7,0.3,3.6,0.4,5.1,1.5c1.1,0.9,1.9,2.1,2.1,3.4c0.1,0.3,0.1,0.6,0.2,0.8C317.6,112.5,319.8,111.9,319.6,109.9z"/>
		<path class="st13" d="M319.6,109.9c-0.1-3.3-0.3-3-0.4-5.8c-0.1-1.7-0.1-3.6-0.1-5.2c0-1.6-1.1-3-2.7-3.3c-1.3-0.3-2.6-0.5-4-0.8
			c-1.7-0.4-3.4-0.8-5.1-1.3c-1.3-0.4-2.6-0.8-3.9-1.3s-2.7-1-4.1-1.6c-1.6-0.7-3.1-1.4-4.7-2.1c-1.7-0.8-3.4-1.7-5.1-2.6
			c-6.6-10.9-6.7-18.1-13.8-26.5l-15.2,6.9c0,0,11.1,19.8,18.7,28.1c4.4,4.8,11.2,7,17.3,8.6c4.4,1.1,8.9,2,13.4,2.8
			c1.7,0.3,3.6,0.4,5.1,1.5c1.1,0.9,1.9,2.1,2.1,3.4c0.1,0.3,0.1,0.6,0.2,0.8C317.6,112.5,319.8,111.9,319.6,109.9z"/>
		<path class="st12" d="M312,94.7c-0.6-0.1-1.2-0.3-1.8-0.4c0,3.5-1.6,9.4-2.2,11.2l1.9,0.4C311.1,102.3,311.9,98.5,312,94.7z"/>
		<path class="st12" d="M319.3,98.9c0-1.6-1.1-3-2.7-3.3l-1-0.2c0.2,1.1,0.7,2.2,1.6,2.9c0.6,0.5,1.3,0.9,2,1.1
			C319.3,99.3,319.3,99.1,319.3,98.9z"/>
		<path class="st15" d="M253.3,19.8c0.4,1.5-1.3,3.1-2.6,1.8c-1.3-1.4-2.6-2.6-4.1-3.7c-1.4-0.9,0.5-2.4,2.6-1.8
			C251,16.6,252.6,18,253.3,19.8z"/>
		<path class="st4" d="M253.5,68.2c-0.7,0.3,0.6,1.5,0.6,1.5s14-4.8,22.5-9.7c0-0.6-0.2-1.2-0.7-1.6C268.5,62,261,65.3,253.5,68.2z"
			/>
		<path class="st16" d="M253.5,68.2c-0.7,0.3,0.6,1.5,0.6,1.5s14-4.8,22.5-9.7c0-0.6-0.2-1.2-0.7-1.6C268.5,62,261,65.3,253.5,68.2z
			"/>
		<path class="st4" d="M263.8,26.9c2.8,1.4,5.4,2.9,8,4.5c1.3,0.8,2.6,1.7,3.8,2.6s2.5,1.8,3.8,2.9l0.5,0.4l0.6,0.5
			c0.4,0.3,0.7,0.6,1,1c0.3,0.3,0.6,0.7,0.9,1s0.5,0.7,0.8,1c0.9,1.3,1.8,2.6,2.6,4c1.5,2.7,2.9,5.5,4,8.3c0.5,1.3-0.2,2.8-1.5,3.2
			c-1,0.4-2,0.1-2.7-0.6v-0.1c-2-2.1-3.9-4.4-5.9-6.5s-3.9-4.2-5.5-5.1c-2.3-1.4-4.8-2.8-7.3-4.2l-7.6-4.2l0,0
			c-2.4-1.3-3.4-4.3-2.1-6.8C258.4,26.4,261.4,25.5,263.8,26.9L263.8,26.9z"/>
		<path class="st13" d="M263.8,26.9c2.8,1.4,5.4,2.9,8,4.5c1.3,0.8,2.6,1.7,3.8,2.6s2.5,1.8,3.8,2.9l0.5,0.4l0.6,0.5
			c0.4,0.3,0.7,0.6,1,1c0.3,0.3,0.6,0.7,0.9,1s0.5,0.7,0.8,1c0.9,1.3,1.8,2.6,2.6,4c1.5,2.7,2.9,5.5,4,8.3c0.5,1.3-0.2,2.8-1.5,3.2
			c-1,0.4-2,0.1-2.7-0.6v-0.1c-2-2.1-3.9-4.4-5.9-6.5s-3.9-4.2-5.5-5.1c-2.3-1.4-4.8-2.8-7.3-4.2l-7.6-4.2l0,0
			c-2.4-1.3-3.4-4.3-2.1-6.8C258.4,26.4,261.4,25.5,263.8,26.9L263.8,26.9z"/>
		<path class="st4" d="M292,58l-0.9-2.1c0,0-0.5-2.7-2.2-3.5l-5,0.8l0.2,0.4l0,0c0.5,1,0.1,2.8-0.3,4.3s0.3,1.7,1,1.4
			c0.4-0.2,0.7-0.8,1.1-1.5c0.2,0.3,0.4,0.7,0.6,1l1.2,1.7c0.5,0.7,1.5,0.9,2.3,0.4l1.4-0.9C292,59.6,292.3,58.8,292,58z"/>
		<path class="st13" d="M292,58l-0.9-2.1c0,0-0.5-2.7-2.2-3.5l-5,0.8l0.2,0.4l0,0c0.5,1,0.1,2.8-0.3,4.3s0.3,1.7,1,1.4
			c0.4-0.2,0.7-0.8,1.1-1.5c0.2,0.3,0.4,0.7,0.6,1l1.2,1.7c0.5,0.7,1.5,0.9,2.3,0.4l1.4-0.9C292,59.6,292.3,58.8,292,58z"/>
		<path class="st12" d="M259.5,38.4l-1.2,0.1l-7.5,18.1c0.4,0,0.8,0,1.2-0.1c0,0,9.8-3.6,12.7-5C262.8,47.4,259.5,38.4,259.5,38.4z"
			/>
		<path class="st15" d="M245.9,43.1c0.9,4.7,2.6,9.3,5,13.4c3.7-1.3,9.8-3.6,12.7-5c-2-4.3-3.8-8.6-5.3-13.1
			C255.1,38.7,248.3,41.3,245.9,43.1z"/>
		<path class="st12" d="M253.3,47c-0.4,1.4-1.8,2.1-3.2,1.7c-1.4-0.4-2.1-1.8-1.7-3.2s1.8-2.1,3.2-1.7l0,0
			C252.9,44.2,253.6,45.6,253.3,47z"/>
		<path class="st17" d="M255.1,43.6c-0.1,0.5-0.6,0.7-1,0.6c-0.5-0.1-0.7-0.6-0.6-1c0.1-0.5,0.6-0.7,1-0.6c0,0,0,0,0.1,0
			C255,42.7,255.3,43.1,255.1,43.6z"/>
		<path class="st17" d="M257.4,42.7c-0.1,0.5-0.5,0.8-1,0.7c-0.5-0.1-0.8-0.5-0.7-1c0-0.1,0-0.1,0-0.2c0.1-0.4,0.6-0.7,1-0.6l0,0
			C257.3,41.8,257.5,42.3,257.4,42.7z"/>
		<polygon class="st18" points="260.5,50.5 251.3,54.1 250.8,52.3 260,48.7 		"/>
	</g>
	<g id="freepik--Rocket--inject-21">
		<path class="st10" d="M209.5,189.5c0,5.8-0.6,11.6-1.7,17.4c-1.2,5.1-3,8.9-5.5,11.3c-2.3,2.3-5.5,3.6-8.8,3.6
			c-5.1,0-9.1-2.8-11.8-8.4c-0.5-1-0.9-2-1.2-3.1c-5.7,4.9-11,10.3-15.9,16l-5.3,6.3c2.9,2.9,6.2,5.3,9.8,7.2
			c6.2,3.2,14.4,4.8,24.5,4.8c1.8,0,3.5,0,5.2-0.1c6.1-9.1,11.2-18.8,15.1-29l14.9-38.7L209.5,189.5z"/>
		<path class="st14" d="M75.6,242.3l17.5,17.5l49-46.2C125.3,207.2,92.4,225.5,75.6,242.3z"/>
		<path class="st14" d="M136.6,303.3c-5.6-5.6-17.5-17.5-17.5-17.5l46.2-49C171.8,253.7,153.4,286.5,136.6,303.3z"/>
		<path class="st4" d="M203.6,193l19.1-36.8l-36.8,19.1c-11.8,6.1-22.7,13.9-32.4,23l-62.8,59.1l30.8,30.8l59.1-62.8
			C189.8,215.7,197.6,204.8,203.6,193z"/>
		<path class="st19" d="M203.6,193l19.1-36.8l-36.8,19.1c-11.8,6.1-22.7,13.9-32.4,23l-62.8,59.1l30.8,30.8l59.1-62.8
			C189.8,215.7,197.6,204.8,203.6,193z"/>
		<circle class="st15" cx="164.4" cy="214.5" r="12.9"/>
		<circle class="st4" cx="164.4" cy="214.5" r="8.3"/>
		<polygon class="st12" points="132.1,277.1 101.9,246.9 126.6,223.7 155.3,252.4 		"/>
		<path class="st4" d="M82.4,269.9c-22.6,1.8-30.1,16.3-32.7,35.5c-1.3,9.8-1.9,19.7-10.1,25.5c-1.3,0.9-1.6,2.6-0.7,3.8
			c0.5,0.8,1.4,1.2,2.4,1.2c30.3-1,44.5-15.8,46.3-22c-0.5,3.2-1.3,6.4-2.5,9.5c-0.6,1.4,0.1,3,1.5,3.6c0.8,0.3,1.7,0.3,2.5-0.2
			c8.5-5.3,19.2-15.1,19.9-31.1C102.8,286.9,82.4,269.9,82.4,269.9z"/>
		<path class="st11" d="M82.4,269.9c-22.6,1.8-30.1,16.3-32.7,35.5c-1.3,9.8-1.9,19.7-10.1,25.5c-1.3,0.9-1.6,2.6-0.7,3.8
			c0.5,0.8,1.4,1.2,2.4,1.2c30.3-1,44.5-15.8,46.3-22c-0.5,3.2-1.3,6.4-2.5,9.5c-0.6,1.4,0.1,3,1.5,3.6c0.8,0.3,1.7,0.3,2.5-0.2
			c8.5-5.3,19.2-15.1,19.9-31.1C102.8,286.9,82.4,269.9,82.4,269.9z"/>
		<polygon class="st4" points="112.6,302.6 76.4,266.4 95.6,262.2 116.6,283.3 		"/>
	</g>
</g>
</svg>
