<?xml version="1.0" encoding="utf-8"?>
<!-- Generator: Adobe Illustrator 19.2.1, SVG Export Plug-In . SVG Version: 6.00 Build 0)  -->
<svg version="1.1" id="Layer_1" xmlns="http://www.w3.org/2000/svg" xmlns:xlink="http://www.w3.org/1999/xlink" x="0px" y="0px"
	 viewBox="0 0 416.7 370.3" style="enable-background:new 0 0 416.7 370.3;" xml:space="preserve">
<style type="text/css">
	.st0{fill:#EBEBEB;}
	.st1{fill:#E0E0E0;}
	.st2{font-family:'ArialMT';}
	.st3{font-size:12px;}
	.st4{fill:#F5F5F5;}
	.st5{fill:#f3c03f;}
	.st6{opacity:0.1;fill:#FFFFFF;enable-background:new    ;}
	.st7{opacity:0.2;enable-background:new    ;}
	.st8{opacity:0.7;fill:#FFFFFF;enable-background:new    ;}
	.st9{fill:#4F4419;}
	.st10{fill:#EBB376;}
	.st11{opacity:0.6;fill:#FFFFFF;enable-background:new    ;}
	.st12{fill:#D58745;}
	.st13{fill:none;stroke:#4F4419;stroke-width:0.5572;stroke-linecap:round;stroke-linejoin:round;}
	.st14{opacity:0.4;enable-background:new    ;}
	.st15{opacity:0.2;fill:#FFFFFF;enable-background:new    ;}
	.st16{opacity:0.3;fill:#FFFFFF;enable-background:new    ;}
	.st17{fill:#FFFFFF;}
	.st18{opacity:0.5;fill:#FFFFFF;enable-background:new    ;}
</style>
<g>
	<rect x="372.9" y="336.3" class="st0" width="33.1" height="0.3"/>
	<rect x="278.6" y="339" class="st0" width="8.7" height="0.3"/>
	<rect x="352.7" y="327" class="st0" width="19.2" height="0.3"/>
	<rect x="8.6" y="328.7" class="st0" width="43.2" height="0.3"/>
	<rect x="60.7" y="328.7" class="st0" width="6.3" height="0.3"/>
	<rect x="87.6" y="332.9" class="st0" width="93.7" height="0.3"/>
	<path class="st1" d="M399.3,16.2v-4.3l-2.2-0.2c-0.3-1.4-0.9-2.8-1.6-4l1.4-1.7l-3-3l-1.8,1.4c-1.2-0.8-2.6-1.4-4-1.7l-0.2-2.2
		h-4.3l-0.2,2.2c-1.4,0.3-2.8,0.9-4,1.7L377.7,3l-3,3l1.4,1.8c-0.8,1.2-1.4,2.6-1.6,4l-2.2,0.2v4.3l2.2,0.2c0.3,1.4,0.8,2.8,1.6,4
		l-1.4,1.7l3,3l1.7-1.4c1.2,0.8,2.6,1.4,4,1.7l0.2,2.2h4.3l0.2-2.2c1.4-0.3,2.8-0.9,4-1.7l1.7,1.4l3-3l-1.4-1.7
		c0.8-1.2,1.4-2.6,1.6-4L399.3,16.2z M385.8,19.8c-3.2,0-5.8-2.6-5.8-5.8s2.6-5.8,5.8-5.8c3.2,0,5.8,2.6,5.8,5.8l0,0
		C391.6,17.2,389,19.8,385.8,19.8z"/>
	<path class="st1" d="M416.7,28.3v-3.4l-1.7-0.1c-0.2-1.1-0.7-2.2-1.3-3.1l1.1-1.3l-2.4-2.4l-1.3,1.1c-0.9-0.6-2-1.1-3.1-1.3
		l-0.2-1.7h-3.4l-0.2,1.8c-1.1,0.2-2.2,0.7-3.1,1.3l-1.3-1.1l-2.4,2.4l1.1,1.3c-0.6,0.9-1.1,2-1.3,3.1l-1.7,0.2v3.4l1.7,0.2
		c0.2,1.1,0.7,2.2,1.3,3.1l-1.1,1.3l2.4,2.4l1.3-1.2c0.9,0.6,2,1.1,3.1,1.3l0.2,1.7h3.4l0.2-1.7c1.1-0.2,2.2-0.7,3.1-1.3l1.4,1.1
		l2.4-2.4l-1.1-1.3c0.6-0.9,1.1-2,1.3-3.1L416.7,28.3z M406.1,31.2c-2.5,0-4.6-2-4.6-4.5s2-4.6,4.5-4.6s4.6,2,4.6,4.5l0,0
		C410.6,29.1,408.6,31.2,406.1,31.2z"/>
	<path class="st1" d="M399.3,37.9v-2.8l-1.5-0.1c-0.2-0.9-0.6-1.8-1.1-2.6l0.9-1.1l-2-2l-1.1,0.9c-0.8-0.5-1.7-0.9-2.6-1.1l-0.1-1.4
		H389l-0.1,1.4c-0.9,0.2-1.8,0.6-2.6,1.1l-1.1-0.9l-2,2l0.9,1.1c-0.5,0.8-0.9,1.7-1.1,2.6l-1.5,0.1v2.8L383,38
		c0.2,0.9,0.6,1.8,1.1,2.6l-0.9,1.1l2,2l1.1-0.9c0.8,0.5,1.7,0.9,2.6,1.1l0.1,1.5h2.8l0.1-1.5c0.9-0.2,1.8-0.6,2.6-1.1l1.1,0.9l2-2
		l-0.9-1.1c0.5-0.8,0.9-1.7,1.1-2.6L399.3,37.9z M390.4,40.3c-2.1,0-3.8-1.7-3.8-3.8s1.7-3.8,3.8-3.8s3.8,1.7,3.8,3.8l0,0
		C394.2,38.5,392.5,40.3,390.4,40.3L390.4,40.3z"/>
	<polygon class="st1" points="6.6,319.3 28.9,170.8 28.9,319.3 34.9,319.3 34.9,169.9 57.3,319.3 63.7,319.3 35.7,132.2 34.9,132.4 
		34.9,126.3 28.9,126.3 28.9,132.3 28.1,132.2 0,319.3 	"/>
	<polygon class="st0" points="62.7,153 0.8,153 5.9,101.3 57.7,101.3 	"/>
	<text transform="matrix(1 0 0 1 20.21 16.2)" class="st1 st2 st3">1</text>
	<text transform="matrix(1 0 0 1 24.61 16.2)" class="st1 st2 st3">0</text>
	<text transform="matrix(1 0 0 1 31.02 16.2)" class="st1 st2 st3">11</text>
	<text transform="matrix(1 0 0 1 39.62 16.2)" class="st1 st2 st3">1</text>
	<text transform="matrix(1 0 0 1 44.02 16.2)" class="st1 st2 st3">00</text>
	<text transform="matrix(1 0 0 1 57.01 16.2)" class="st1 st2 st3">0</text>
	<text transform="matrix(1 0 0 1 63.42 16.2)" class="st1 st2 st3">1</text>
	<text transform="matrix(1 0 0 1 67.82 16.2)" class="st1 st2 st3">0</text>
	<text transform="matrix(1 0 0 1 74.22 16.2)" class="st1 st2 st3">1</text>
	<text transform="matrix(1 0 0 1 78.62 16.2)" class="st1 st2 st3">0</text>
	<text transform="matrix(1 0 0 1 85.03 16.2)" class="st1 st2 st3">1</text>
	<text transform="matrix(1 0 0 1 89.43 16.2)" class="st1 st2 st3">00</text>
	<text transform="matrix(1 0 0 1 102.42 16.2)" class="st1 st2 st3">0</text>
	<text transform="matrix(1 0 0 1 108.83 16.2)" class="st1 st2 st3">1</text>
	<text transform="matrix(1 0 0 1 113.22 16.2)" class="st1 st2 st3">0</text>
	<text transform="matrix(1 0 0 1 119.63 16.2)" class="st1 st2 st3">1</text>
	<text transform="matrix(1 0 0 1 124.0299 16.2)" class="st1 st2 st3">0</text>
	<text transform="matrix(1 0 0 1 130.44 16.2)" class="st1 st2 st3">1</text>
	<text transform="matrix(1 0 0 1 134.84 16.2)" class="st1 st2 st3">0</text>
	<text transform="matrix(1 0 0 1 141.25 16.2)" class="st1 st2 st3">1</text>
	<text transform="matrix(1 0 0 1 145.64 16.2)" class="st1 st2 st3">0</text>
	<text transform="matrix(1 0 0 1 152.05 16.2)" class="st1 st2 st3">1</text>
	<text transform="matrix(1 0 0 1 156.45 16.2)" class="st1 st2 st3">0</text>
	<text transform="matrix(1 0 0 1 162.86 16.2)" class="st1 st2 st3">1</text>
	<text transform="matrix(1 0 0 1 167.25 16.2)" class="st1 st2 st3">0</text>
	<text transform="matrix(1 0 0 1 173.6601 16.2)" class="st1 st2 st3">1</text>
	<text transform="matrix(1 0 0 1 178.06 16.2)" class="st1 st2 st3">0</text>
	<text transform="matrix(1 0 0 1 184.47 16.2)" class="st1 st2 st3">1</text>
	<text transform="matrix(1 0 0 1 188.87 16.2)" class="st1 st2 st3">0</text>
	<text transform="matrix(1 0 0 1 195.2799 16.2)" class="st1 st2 st3">1</text>
	<text transform="matrix(1 0 0 1 199.6701 16.2)" class="st1 st2 st3">000000</text>
	<text transform="matrix(1 0 0 1 238.64 16.2)" class="st1 st2 st3">0</text>
	<text transform="matrix(1 0 0 1 245.05 16.2)" class="st1 st2 st3">11111</text>
	<text transform="matrix(1 0 0 1 266.57 16.2)" class="st1 st2 st3">1</text>
	<text transform="matrix(1 0 0 1 270.96 16.2)" class="st1 st2 st3">0</text>
	<text transform="matrix(1 0 0 1 277.46 16.2)" class="st1 st2 st3">0</text>
	<text transform="matrix(1 0 0 1 283.87 16.2)" class="st1 st2 st3">1</text>
	<text transform="matrix(1 0 0 1 288.26 16.2)" class="st1 st2 st3">0</text>
	<text transform="matrix(1 0 0 1 294.6701 16.2)" class="st1 st2 st3">111</text>
	<text transform="matrix(1 0 0 1 307.58 16.2)" class="st1 st2 st3">1</text>
	<text transform="matrix(1 0 0 1 311.98 16.2)" class="st1 st2 st3">0</text>
	<text transform="matrix(1 0 0 1 318.39 16.2)" class="st1 st2 st3">1</text>
	<text transform="matrix(1 0 0 1 322.7899 16.2)" class="st1 st2 st3">0</text>
	<text transform="matrix(1 0 0 1 329.2 16.2)" class="st1 st2 st3">1</text>
	<text transform="matrix(1 0 0 1 98.66 257.09)" class="st1 st2 st3">1</text>
	<text transform="matrix(1 0 0 1 103.06 257.09)" class="st1 st2 st3">0</text>
	<text transform="matrix(1 0 0 1 109.47 257.09)" class="st1 st2 st3">11</text>
	<text transform="matrix(1 0 0 1 118.07 257.09)" class="st1 st2 st3">1</text>
	<text transform="matrix(1 0 0 1 122.47 257.09)" class="st1 st2 st3">00</text>
	<text transform="matrix(1 0 0 1 135.46 257.09)" class="st1 st2 st3">0</text>
	<text transform="matrix(1 0 0 1 141.87 257.09)" class="st1 st2 st3">1</text>
	<text transform="matrix(1 0 0 1 146.2699 257.09)" class="st1 st2 st3">0</text>
	<text transform="matrix(1 0 0 1 152.6701 257.09)" class="st1 st2 st3">1</text>
	<text transform="matrix(1 0 0 1 157.07 257.09)" class="st1 st2 st3">0</text>
	<text transform="matrix(1 0 0 1 163.48 257.09)" class="st1 st2 st3">1</text>
	<text transform="matrix(1 0 0 1 167.88 257.09)" class="st1 st2 st3">00</text>
	<text transform="matrix(1 0 0 1 180.87 257.09)" class="st1 st2 st3">0</text>
	<text transform="matrix(1 0 0 1 187.2799 257.09)" class="st1 st2 st3">1</text>
	<text transform="matrix(1 0 0 1 191.6701 257.09)" class="st1 st2 st3">0</text>
	<text transform="matrix(1 0 0 1 198.08 257.09)" class="st1 st2 st3">1</text>
	<text transform="matrix(1 0 0 1 202.48 257.09)" class="st1 st2 st3">0</text>
	<text transform="matrix(1 0 0 1 208.89 257.09)" class="st1 st2 st3">1</text>
	<text transform="matrix(1 0 0 1 213.2899 257.09)" class="st1 st2 st3">0</text>
	<text transform="matrix(1 0 0 1 219.7 257.09)" class="st1 st2 st3">1</text>
	<text transform="matrix(1 0 0 1 224.09 257.09)" class="st1 st2 st3">0</text>
	<text transform="matrix(1 0 0 1 230.5 257.09)" class="st1 st2 st3">1</text>
	<text transform="matrix(1 0 0 1 234.9001 257.09)" class="st1 st2 st3">00</text>
	<text transform="matrix(1 0 0 1 247.89 257.09)" class="st1 st2 st3">0</text>
	<text transform="matrix(1 0 0 1 254.3 257.09)" class="st1 st2 st3">1111</text>
	<text transform="matrix(1 0 0 1 271.51 257.09)" class="st1 st2 st3">1</text>
	<text transform="matrix(1 0 0 1 275.9101 257.09)" class="st1 st2 st3">0</text>
	<text transform="matrix(1 0 0 1 282.32 257.09)" class="st1 st2 st3">1</text>
	<text transform="matrix(1 0 0 1 286.71 257.09)" class="st1 st2 st3">0</text>
	<text transform="matrix(1 0 0 1 293.12 257.09)" class="st1 st2 st3">1</text>
	<text transform="matrix(1 0 0 1 297.5201 257.09)" class="st1 st2 st3">0</text>
	<text transform="matrix(1 0 0 1 303.93 257.09)" class="st1 st2 st3">1</text>
	<text transform="matrix(1 0 0 1 308.33 257.09)" class="st1 st2 st3">000</text>
	<text transform="matrix(1 0 0 1 327.81 257.09)" class="st1 st2 st3">0</text>
	<text transform="matrix(1 0 0 1 334.22 257.09)" class="st1 st2 st3">11</text>
	<text transform="matrix(1 0 0 1 342.83 257.09)" class="st1 st2 st3">1</text>
	<text transform="matrix(1 0 0 1 347.22 257.09)" class="st1 st2 st3">0</text>
	<text transform="matrix(1 0 0 1 353.63 257.09)" class="st1 st2 st3">1</text>
	<text transform="matrix(1 0 0 1 358.0299 257.09)" class="st1 st2 st3">0</text>
	<text transform="matrix(1 0 0 1 364.44 257.09)" class="st1 st2 st3">1</text>
	<text transform="matrix(1 0 0 1 368.84 257.09)" class="st1 st2 st3">0000</text>
	<text transform="matrix(1 0 0 1 394.81 257.09)" class="st1 st2 st3">0</text>
	<text transform="matrix(1 0 0 1 41.55 53.23)" class="st1 st2 st3">0</text>
	<text transform="matrix(1 0 0 1 47.96 53.23)" class="st1 st2 st3">1</text>
	<text transform="matrix(1 0 0 1 52.36 53.23)" class="st1 st2 st3">0</text>
	<text transform="matrix(1 0 0 1 58.77 53.23)" class="st1 st2 st3">1</text>
	<text transform="matrix(1 0 0 1 63.16 53.23)" class="st1 st2 st3">0</text>
	<text transform="matrix(1 0 0 1 69.57 53.23)" class="st1 st2 st3">1</text>
	<text transform="matrix(1 0 0 1 73.97 53.23)" class="st1 st2 st3">00</text>
	<text transform="matrix(1 0 0 1 86.96 53.23)" class="st1 st2 st3">0</text>
	<text transform="matrix(1 0 0 1 93.37 53.23)" class="st1 st2 st3">1</text>
	<text transform="matrix(1 0 0 1 97.76 53.23)" class="st1 st2 st3">0</text>
	<text transform="matrix(1 0 0 1 104.17 53.23)" class="st1 st2 st3">1</text>
	<text transform="matrix(1 0 0 1 108.57 53.23)" class="st1 st2 st3">0</text>
	<text transform="matrix(1 0 0 1 114.98 53.23)" class="st1 st2 st3">1</text>
	<text transform="matrix(1 0 0 1 119.38 53.23)" class="st1 st2 st3">0</text>
	<text transform="matrix(1 0 0 1 125.7899 53.23)" class="st1 st2 st3">1</text>
	<text transform="matrix(1 0 0 1 130.1801 53.23)" class="st1 st2 st3">000000</text>
	<text transform="matrix(1 0 0 1 169.1501 53.23)" class="st1 st2 st3">0</text>
	<text transform="matrix(1 0 0 1 175.56 53.23)" class="st1 st2 st3">11111</text>
	<text transform="matrix(1 0 0 1 197.08 53.23)" class="st1 st2 st3">1</text>
	<text transform="matrix(1 0 0 1 201.47 53.23)" class="st1 st2 st3">0</text>
	<text transform="matrix(1 0 0 1 207.97 53.23)" class="st1 st2 st3">0</text>
	<text transform="matrix(1 0 0 1 214.38 53.23)" class="st1 st2 st3">1</text>
	<text transform="matrix(1 0 0 1 218.7701 53.23)" class="st1 st2 st3">0</text>
	<text transform="matrix(1 0 0 1 225.18 53.23)" class="st1 st2 st3">111</text>
	<text transform="matrix(1 0 0 1 238.09 53.23)" class="st1 st2 st3">1</text>
	<text transform="matrix(1 0 0 1 242.49 53.23)" class="st1 st2 st3">0</text>
	<text transform="matrix(1 0 0 1 248.9001 53.23)" class="st1 st2 st3">1</text>
	<text transform="matrix(1 0 0 1 253.3 53.23)" class="st1 st2 st3">0</text>
	<text transform="matrix(1 0 0 1 259.71 53.23)" class="st1 st2 st3">1</text>
	<text transform="matrix(1 0 0 1 119.34 299.29)" class="st1 st2 st3">0</text>
	<text transform="matrix(1 0 0 1 125.75 299.29)" class="st1 st2 st3">1</text>
	<text transform="matrix(1 0 0 1 130.1501 299.29)" class="st1 st2 st3">0</text>
	<text transform="matrix(1 0 0 1 136.56 299.29)" class="st1 st2 st3">1</text>
	<text transform="matrix(1 0 0 1 140.95 299.29)" class="st1 st2 st3">0</text>
	<text transform="matrix(1 0 0 1 147.36 299.29)" class="st1 st2 st3">1</text>
	<text transform="matrix(1 0 0 1 151.76 299.29)" class="st1 st2 st3">00</text>
	<text transform="matrix(1 0 0 1 164.75 299.29)" class="st1 st2 st3">0</text>
	<text transform="matrix(1 0 0 1 171.1601 299.29)" class="st1 st2 st3">1</text>
	<text transform="matrix(1 0 0 1 175.55 299.29)" class="st1 st2 st3">0</text>
	<text transform="matrix(1 0 0 1 181.96 299.29)" class="st1 st2 st3">1</text>
	<text transform="matrix(1 0 0 1 186.36 299.29)" class="st1 st2 st3">0</text>
	<text transform="matrix(1 0 0 1 192.7699 299.29)" class="st1 st2 st3">1</text>
	<text transform="matrix(1 0 0 1 197.1701 299.29)" class="st1 st2 st3">0</text>
	<text transform="matrix(1 0 0 1 203.58 299.29)" class="st1 st2 st3">1</text>
	<text transform="matrix(1 0 0 1 207.97 299.29)" class="st1 st2 st3">000000</text>
	<text transform="matrix(1 0 0 1 246.94 299.29)" class="st1 st2 st3">0</text>
	<text transform="matrix(1 0 0 1 253.35 299.29)" class="st1 st2 st3">11111</text>
	<text transform="matrix(1 0 0 1 274.87 299.29)" class="st1 st2 st3">1</text>
	<text transform="matrix(1 0 0 1 279.26 299.29)" class="st1 st2 st3">0</text>
	<text transform="matrix(1 0 0 1 285.76 299.29)" class="st1 st2 st3">0</text>
	<text transform="matrix(1 0 0 1 292.1701 299.29)" class="st1 st2 st3">1</text>
	<text transform="matrix(1 0 0 1 296.56 299.29)" class="st1 st2 st3">0</text>
	<text transform="matrix(1 0 0 1 302.97 299.29)" class="st1 st2 st3">111</text>
	<text transform="matrix(1 0 0 1 315.88 299.29)" class="st1 st2 st3">1</text>
	<text transform="matrix(1 0 0 1 320.2799 299.29)" class="st1 st2 st3">0</text>
	<text transform="matrix(1 0 0 1 326.69 299.29)" class="st1 st2 st3">1</text>
	<text transform="matrix(1 0 0 1 331.09 299.29)" class="st1 st2 st3">0</text>
	<text transform="matrix(1 0 0 1 337.5 299.29)" class="st1 st2 st3">1</text>
	<text transform="matrix(1 0 0 1 183.4101 276.96)" class="st1 st2 st3">0</text>
	<text transform="matrix(1 0 0 1 189.82 276.96)" class="st1 st2 st3">1</text>
	<text transform="matrix(1 0 0 1 194.22 276.96)" class="st1 st2 st3">0</text>
	<text transform="matrix(1 0 0 1 200.63 276.96)" class="st1 st2 st3">1</text>
	<text transform="matrix(1 0 0 1 205.0199 276.96)" class="st1 st2 st3">0</text>
	<text transform="matrix(1 0 0 1 211.4301 276.96)" class="st1 st2 st3">1</text>
	<text transform="matrix(1 0 0 1 215.83 276.96)" class="st1 st2 st3">00</text>
	<text transform="matrix(1 0 0 1 228.82 276.96)" class="st1 st2 st3">0</text>
	<text transform="matrix(1 0 0 1 235.23 276.96)" class="st1 st2 st3">1</text>
	<text transform="matrix(1 0 0 1 239.62 276.96)" class="st1 st2 st3">0</text>
	<text transform="matrix(1 0 0 1 246.0299 276.96)" class="st1 st2 st3">1</text>
	<text transform="matrix(1 0 0 1 250.43 276.96)" class="st1 st2 st3">0</text>
	<text transform="matrix(1 0 0 1 256.84 276.96)" class="st1 st2 st3">1</text>
	<text transform="matrix(1 0 0 1 261.24 276.96)" class="st1 st2 st3">0</text>
	<text transform="matrix(1 0 0 1 267.6501 276.96)" class="st1 st2 st3">1</text>
	<text transform="matrix(1 0 0 1 272.0399 276.96)" class="st1 st2 st3">000000</text>
	<text transform="matrix(1 0 0 1 311.01 276.96)" class="st1 st2 st3">0</text>
	<text transform="matrix(1 0 0 1 317.4201 276.96)" class="st1 st2 st3">11111</text>
	<text transform="matrix(1 0 0 1 338.94 276.96)" class="st1 st2 st3">1</text>
	<text transform="matrix(1 0 0 1 343.33 276.96)" class="st1 st2 st3">0</text>
	<text transform="matrix(1 0 0 1 349.83 276.96)" class="st1 st2 st3">0</text>
	<text transform="matrix(1 0 0 1 356.24 276.96)" class="st1 st2 st3">1</text>
	<text transform="matrix(1 0 0 1 360.63 276.96)" class="st1 st2 st3">0</text>
	<text transform="matrix(1 0 0 1 367.0399 276.96)" class="st1 st2 st3">111</text>
	<text transform="matrix(1 0 0 1 379.95 276.96)" class="st1 st2 st3">1</text>
	<text transform="matrix(1 0 0 1 384.35 276.96)" class="st1 st2 st3">0</text>
	<text transform="matrix(1 0 0 1 390.76 276.96)" class="st1 st2 st3">1</text>
	<text transform="matrix(1 0 0 1 395.1601 276.96)" class="st1 st2 st3">0</text>
	<text transform="matrix(1 0 0 1 401.57 276.96)" class="st1 st2 st3">1</text>
	<text transform="matrix(1 0 0 1 41.55 71.8)" class="st1 st2 st3">0</text>
	<text transform="matrix(1 0 0 1 47.96 71.8)" class="st1 st2 st3">1</text>
	<text transform="matrix(1 0 0 1 52.36 71.8)" class="st1 st2 st3">0</text>
	<text transform="matrix(1 0 0 1 58.77 71.8)" class="st1 st2 st3">1</text>
	<text transform="matrix(1 0 0 1 63.16 71.8)" class="st1 st2 st3">0</text>
	<text transform="matrix(1 0 0 1 69.57 71.8)" class="st1 st2 st3">1</text>
	<text transform="matrix(1 0 0 1 73.97 71.8)" class="st1 st2 st3">00</text>
	<text transform="matrix(1 0 0 1 86.96 71.8)" class="st1 st2 st3">0</text>
	<text transform="matrix(1 0 0 1 93.37 71.8)" class="st1 st2 st3">1</text>
	<text transform="matrix(1 0 0 1 97.76 71.8)" class="st1 st2 st3">0</text>
	<text transform="matrix(1 0 0 1 104.17 71.8)" class="st1 st2 st3">1</text>
	<text transform="matrix(1 0 0 1 108.57 71.8)" class="st1 st2 st3">0</text>
	<text transform="matrix(1 0 0 1 114.98 71.8)" class="st1 st2 st3">1</text>
	<text transform="matrix(1 0 0 1 119.38 71.8)" class="st1 st2 st3">0</text>
	<text transform="matrix(1 0 0 1 125.7899 71.8)" class="st1 st2 st3">1</text>
	<text transform="matrix(1 0 0 1 130.1801 71.8)" class="st1 st2 st3">0</text>
	<text transform="matrix(1 0 0 1 136.59 71.8)" class="st1 st2 st3">1</text>
	<text transform="matrix(1 0 0 1 140.99 71.8)" class="st1 st2 st3">0</text>
	<text transform="matrix(1 0 0 1 147.4001 71.8)" class="st1 st2 st3">1</text>
	<text transform="matrix(1 0 0 1 151.8 71.8)" class="st1 st2 st3">0</text>
	<text transform="matrix(1 0 0 1 158.2 71.8)" class="st1 st2 st3">1</text>
	<text transform="matrix(1 0 0 1 162.6 71.8)" class="st1 st2 st3">0</text>
	<text transform="matrix(1 0 0 1 169.01 71.8)" class="st1 st2 st3">1</text>
	<text transform="matrix(1 0 0 1 173.4101 71.8)" class="st1 st2 st3">0</text>
	<text transform="matrix(1 0 0 1 179.82 71.8)" class="st1 st2 st3">1</text>
	<text transform="matrix(1 0 0 1 184.21 71.8)" class="st1 st2 st3">000000</text>
	<text transform="matrix(1 0 0 1 223.18 71.8)" class="st1 st2 st3">0</text>
	<text transform="matrix(1 0 0 1 229.59 71.8)" class="st1 st2 st3">11111</text>
	<text transform="matrix(1 0 0 1 251.11 71.8)" class="st1 st2 st3">1</text>
	<text transform="matrix(1 0 0 1 255.5 71.8)" class="st1 st2 st3">0</text>
	<text transform="matrix(1 0 0 1 262 71.8)" class="st1 st2 st3">0</text>
	<text transform="matrix(1 0 0 1 268.4101 71.8)" class="st1 st2 st3">1</text>
	<text transform="matrix(1 0 0 1 272.8 71.8)" class="st1 st2 st3">0</text>
	<text transform="matrix(1 0 0 1 279.21 71.8)" class="st1 st2 st3">111</text>
	<text transform="matrix(1 0 0 1 292.13 71.8)" class="st1 st2 st3">1</text>
	<text transform="matrix(1 0 0 1 296.5201 71.8)" class="st1 st2 st3">0</text>
	<text transform="matrix(1 0 0 1 302.93 71.8)" class="st1 st2 st3">1</text>
	<text transform="matrix(1 0 0 1 307.33 71.8)" class="st1 st2 st3">0</text>
	<text transform="matrix(1 0 0 1 313.74 71.8)" class="st1 st2 st3">1</text>
	<ellipse id="freepik--path--inject-189" class="st4" cx="206.1" cy="354" rx="193.9" ry="11.3"/>
	<path class="st5" d="M400.1,30.4v201.2c-0.1,4.9-4.1,9-9,9.1H101.5c-4.8,0-8.4-4.3-8.4-9.1V30.4c-0.1-4.6,3.5-8.5,8.1-8.6
		c0.1,0,0.2,0,0.3,0h289.6C395.9,21.7,399.9,25.6,400.1,30.4z"/>
	<path class="st6" d="M400.1,55.5v176.2c-0.1,4.9-4.1,9-9,9.1H101.5c-4.8,0-8.4-4.3-8.4-9.1v-68.6c25.5-49,86.2-56.9,157.3-28.3
		C351.1,175.4,394,120.3,400.1,55.5z"/>
	<path class="st7" d="M321,217.8H174.1c-2.8,0-5-2.2-5-5l0,0c0-2.8,2.2-5,5-5H321c2.8,0,5,2.2,5,5l0,0
		C326,215.6,323.8,217.8,321,217.8z"/>
	<path class="st5" d="M174.1,216.8c-2.2,0-4-1.8-4-4s1.8-4,4-4h86.8c2.2,0,4,1.8,4,4s-1.8,4-4,4H174.1z"/>
	<path class="st8" d="M174.1,216.8c-2.2,0-4-1.8-4-4s1.8-4,4-4h86.8c2.2,0,4,1.8,4,4s-1.8,4-4,4H174.1z"/>
	<path class="st9" d="M116,225.1c9.3,7.5,6.1,43.2,7.8,48.7s9.3,10,9.3,10l-10.5,12.3c0,0-8.8-1.5-15.4-15.8S116,225.1,116,225.1z"
		/>
	<path class="st7" d="M116,225.1c9.3,7.5,6.1,43.2,7.8,48.7s9.3,10,9.3,10l-10.5,12.3c0,0-8.8-1.5-15.4-15.8S116,225.1,116,225.1z"
		/>
	<path class="st5" d="M106.1,303.6c0,0,67-18.7,75.4,4.8s-52.4,42.2-86,43.4s-47.4-22.5-37.4-44.9L106.1,303.6z"/>
	<path class="st7" d="M106.1,303.6c0,0,67-18.7,75.4,4.8s-52.4,42.2-86,43.4s-47.4-22.5-37.4-44.9L106.1,303.6z"/>
	<path class="st5" d="M171.8,341.6c-0.1,0-0.2,0-0.3,0s-0.1-0.1-0.1-0.2c0.1-0.4,1.2-3.6,2.4-4c0.2-0.1,0.5,0,0.7,0.2
		c0.3,0.3,0.5,0.7,0.4,1.1c-0.2,0.6-0.5,1.1-1.1,1.5C173.2,340.8,172.5,341.2,171.8,341.6z M172.1,341c1-0.5,1.9-1.3,2.4-2.3
		c0.1-0.3,0-0.6-0.3-0.7c-0.1-0.1-0.2-0.1-0.3-0.1s-0.2,0.1-0.3,0.1C173,338.9,172.4,339.9,172.1,341L172.1,341z"/>
	<path class="st5" d="M171.7,341.6c-0.1,0-0.2,0-0.2-0.1c-0.1-0.1-1.7-2.1-1.4-3.4c0.1-0.3,0.3-0.6,0.5-0.8c0.2-0.2,0.6-0.3,0.9-0.1
		c0.8,0.6,0.7,3.2,0.3,4.2v0.1L171.7,341.6z M170.8,337.8c-0.1,0.1-0.2,0.3-0.3,0.5c-0.2,0.8,0.6,2.1,1,2.7c0.3-1.1,0.2-3-0.3-3.3
		C171.2,337.7,171.1,337.6,170.8,337.8L170.8,337.8L170.8,337.8z"/>
	<path class="st5" d="M103.5,353.5c0-0.1,0.1-0.2,0.2-0.2c0.1,0,0.2,0,0.2,0.1c0.2,0.3,1.7,3.4,1.2,4.4c-0.1,0.2-0.4,0.3-0.6,0.3
		c-0.4,0-0.8-0.1-1.1-0.5c-0.3-0.6-0.4-1.2-0.4-1.8C103.1,355.1,103.3,354.3,103.5,353.5z M103.7,354.1c-0.4,1.1-0.4,2.3,0,3.3
		c0.2,0.2,0.4,0.4,0.7,0.3c0.1,0,0.2,0,0.2-0.1s0.1-0.2,0.1-0.3C104.6,356.2,104.3,355.1,103.7,354.1L103.7,354.1z"/>
	<polygon class="st10" points="119.7,330.9 107.9,339.6 102.2,343.7 105.9,350.2 111.7,347.1 125.8,339.3 	"/>
	<path class="st9" d="M107.7,350l-3.6-7.9c-0.2-0.4-0.7-0.6-1.1-0.4l0,0l-3.9,1.9c0,0-5.4,2.2-6,3.9c-2,5.1,5.5,22.8,7.8,22.8
		c0.9,0,1.4-1.3,1.5-2.2c0.4-2.7,0.4-9.4,0.8-11.6c0.4-2.6,3-4.6,4.3-5.4C107.8,350.8,107.9,350.4,107.7,350z"/>
	<path class="st5" d="M103.5,353.4c0-0.1,0.1-0.1,0.2-0.1c0.1,0,2.6,0.3,3.4,1.4c0.2,0.3,0.3,0.6,0.2,1c0,0.3-0.2,0.6-0.6,0.7
		c-1,0.2-2.8-1.7-3.2-2.7v-0.1C103.5,353.5,103.5,353.5,103.5,353.4z M106.9,355.5c0-0.2,0-0.4-0.1-0.5c-0.5-0.7-1.9-1-2.6-1.1
		c0.6,1,2,2.2,2.6,2.1c0.1,0,0.2,0,0.2-0.3L106.9,355.5L106.9,355.5z"/>
	<polygon class="st7" points="119.7,330.9 107.9,339.6 111.7,347.1 125.8,339.3 	"/>
	<polygon class="st5" points="114.4,347.6 118.3,346.7 111.8,334.3 108.2,338 	"/>
	<polygon class="st11" points="114.4,347.6 118.3,346.7 111.8,334.3 108.2,338 	"/>
	<polygon class="st10" points="144.2,345.8 158.7,348.2 165.7,349.4 167.7,342.2 161.5,340.3 146.1,335.6 	"/>
	<path class="st9" d="M166.3,341l-3.1,8.1c-0.2,0.4,0.1,1,0.5,1.1l0,0l4.1,1.4c0,0,5.3,2.3,7,1.6c5-2.2,12.4-19.8,10.8-21.5
		c-0.6-0.6-1.9,0-2.6,0.5c-2.2,1.6-7,6.3-8.9,7.6c-2.1,1.5-5.4,1.1-6.8,0.8C166.9,340.4,166.5,340.6,166.3,341z"/>
	<polygon class="st7" points="144.2,345.8 158.7,348.2 161.5,340.3 146.1,335.6 	"/>
	<path class="st5" d="M159,338.8c0,0-60.3-35.6-80.7-34.6s-22.2,21.2-13.8,32.5s24,14,24,14s-10.6-15-9.1-19.2s7.4,9.9,7.4,9.9
		s37.4,4.9,69.9,7.6L159,338.8z"/>
	<polygon class="st5" points="159.9,337.8 156.6,335.6 152.3,348.8 157.4,348.8 	"/>
	<polygon class="st11" points="159.9,337.8 156.6,335.6 152.3,348.8 157.4,348.8 	"/>
	<path class="st9" d="M114,309.8c-10.9-21-7.4-53,2-84.7c-6.6-5.5-32.9-9.2-53-3.4c0,0-12.7,47.2-11.2,98.8L114,309.8z"/>
	<path class="st10" d="M90.8,230.2c-8.8,0-14.5-9.2-14.5-9.2c11.5-4,11.5-16.2,11.5-16.2l4.4,4.3l6.3,6.2c-5.3,3.7-2.8,6.9-1.1,8.4
		c0.3,0.3,0.7,0.6,1.1,0.8C98.6,224.5,99.6,230.2,90.8,230.2z"/>
	<path class="st7" d="M97.5,223.7c-10.8,1.2-10-14.9-10-14.9c1.6,0,3.2,0.1,4.8,0.4l6.3,6.2C93.4,219.1,95.9,222.3,97.5,223.7z"/>
	<path class="st9" d="M105.9,192.8c-4.1,1.7-3.3,6.1,3.5,14.2c4.2-3.6,6.4-11.8,4.2-14.4S109.5,191.3,105.9,192.8z"/>
	<path class="st10" d="M112,210.8L112,210.8c-0.4,1.1-0.8,2.1-1.3,3.2c-4,8.2-15.6,9.8-20.7,1.7l-0.1-0.1
		c-3.4-5.5-2.1-10.5-0.7-19.4c1-6.7,7.3-11.2,13.9-10.2c1.8,0.3,3.6,1,5.1,2C114.9,192.7,114.5,203.3,112,210.8z"/>
	<path class="st9" d="M101.6,201.6c-0.2,0.7,0.1,1.4,0.6,1.5s1-0.4,1.1-1.1s-0.1-1.4-0.5-1.5S101.8,200.9,101.6,201.6z"/>
	<path class="st9" d="M109.7,203.4c-0.2,0.7,0.1,1.4,0.6,1.5s1-0.4,1.1-1.1s-0.1-1.4-0.6-1.5S109.8,202.7,109.7,203.4z"/>
	<path class="st12" d="M107,203.1c0.3,2.4,1,4.6,2,6.8c-1.5,0.9-3.5-0.1-3.5-0.1L107,203.1z"/>
	<path class="st9" d="M100,198.5c-0.1,0-0.2,0-0.3-0.1c-0.2-0.2-0.2-0.4,0-0.6l0,0c1-0.9,2.4-1.3,3.8-1c0.2,0.1,0.3,0.3,0.3,0.5l0,0
		c-0.1,0.2-0.3,0.3-0.5,0.3l0,0c-1.1-0.2-2.2,0.1-3,0.8C100.2,198.5,100.1,198.5,100,198.5z"/>
	<path class="st9" d="M114,201.5c-0.2,0-0.3-0.2-0.3-0.3c-0.2-1.1-0.9-2-1.9-2.4c-0.2-0.1-0.3-0.3-0.3-0.5c0.1-0.2,0.3-0.3,0.5-0.3
		c1.3,0.5,2.2,1.7,2.5,3c0.1,0.2-0.1,0.5-0.3,0.5l0,0H114L114,201.5z"/>
	<path class="st9" d="M94.4,189.3c3.8,2.3,2.3,6.6-5.7,13.5c-3.6-4.2-4.5-12.6-1.9-14.9S91.1,187.3,94.4,189.3z"/>
	<path class="st10" d="M83.5,202.3c0.1,2.2,1.1,4.3,2.8,5.8c2.2,2,4.6,0.3,5.1-2.5c0.4-2.5-0.3-6.5-3-7.4S83.3,199.5,83.5,202.3z"/>
	<path class="st13" d="M98.6,209.9c0,0,0.9,3.2,5.2,3.9"/>
	<path class="st13" d="M106.3,203.2c0,1.7-1.3,3-3,3s-3-1.3-3-3s1.3-3,3-3S106.3,201.5,106.3,203.2z"/>
	<path class="st13" d="M114.5,204.8c0,1.7-1.3,3-3,3s-3-1.3-3-3s1.3-3,3-3S114.5,203.2,114.5,204.8z"/>
	<path class="st13" d="M106.3,204c0.7-0.4,1.7-0.2,2.1,0.6"/>
	<path class="st13" d="M100.3,202.6c0,0-8.7-3.7-10.3-4"/>
	<path class="st9" d="M86.7,188.1c0,0-0.9-7.1,6.3-8.2s16.6,0.6,19.6-0.6c-0.2,1.3-1,2.4-2.1,3.1c0,0,5.5,2,9.8,0.3
		c0,0-1.9,5.2-4.3,7.2h2.1c0,0-4.1,3.9-9.1,4s-9.7-6.8-14.6-4.5S86.7,188.1,86.7,188.1z"/>
	<path class="st14" d="M112,210.8L112,210.8c-0.4,1.1-0.8,2.1-1.3,3.2c-4,8.2-15.6,9.8-20.7,1.7l-0.1-0.1c-2.6-4.7-0.5-9.8-0.5-9.8
		l1.5-5l1.1-1.1c0,0,0.3,5.1,1.1,6.5s5.3,1.9,6.2,2.1s3.1,2.9,4.2,3.5s5,0.1,5.5,0.7S112,210.8,112,210.8z"/>
	<path class="st7" d="M67,291.3l20.7,23c0,0,22.9-0.5,50.8,13.1c0,0,29.9-12.3,32.6-22.6c2.7-10.3-62.7-3-62.7-3L67,291.3z"/>
	<path class="st10" d="M72.9,284.6l33.3,10.9c0,0,11.9-2.6,14-2.6s10.3,6.7,5.7,9c-4.6,2.3-17.3,2.6-18.7,1.9s-38.3-9.4-38.3-9.4
		L72.9,284.6z"/>
	<path class="st9" d="M63,221.7c7.5-1.5-5.5,44.4-2.3,51.1s15.7,11,15.7,11l-5.8,12.7c0,0-17-3.2-26.3-15S50.7,224.1,63,221.7z"/>
	<path class="st7" d="M63,221.7c7.5-1.5-5.5,44.4-2.3,51.1s15.7,11,15.7,11l-5.8,12.7c0,0-17-3.2-26.3-15S50.7,224.1,63,221.7z"/>
	<polygon class="st9" points="76.4,282.8 69.4,296.5 75.4,297.8 80.9,285.2 	"/>
	<polygon class="st15" points="76.4,282.8 69.4,296.5 75.4,297.8 80.9,285.2 	"/>
	<path class="st9" d="M90.1,301.8v2.2c0,1.5,1.2,2.8,2.7,2.8h80.4c1.6,0,2.8-1.3,2.9-2.8v-2.2H90.1z"/>
	<path class="st15" d="M90.1,301.8v2.2c0,1.5,1.2,2.8,2.7,2.8h80.4c1.6,0,2.8-1.3,2.9-2.8v-2.2H90.1z"/>
	<path class="st15" d="M120.1,301.8v2.2c0,1.5,1.2,2.8,2.7,2.8h50.4c1.6,0,2.8-1.3,2.9-2.8v-2.2H120.1z"/>
	<path class="st9" d="M122.8,304.8h53.1c1.7-0.1,3.3-1.2,3.9-2.9l12.2-38.2c0.5-1.1,0-2.3-1.1-2.8c-0.3-0.1-0.6-0.2-0.9-0.2h-53.2
		c-1.8,0.1-3.3,1.3-3.9,2.9l-12.2,38.2c-0.5,1.1,0,2.3,1.1,2.7C122.2,304.8,122.5,304.8,122.8,304.8z"/>
	<path class="st15" d="M122.8,304.8h53.1c1.7-0.1,3.3-1.2,3.9-2.9l12.2-38.2c0.5-1.1,0-2.3-1.1-2.8c-0.3-0.1-0.6-0.2-0.9-0.2h-53.2
		c-1.8,0.1-3.3,1.3-3.9,2.9l-12.2,38.2c-0.5,1.1,0,2.3,1.1,2.7C122.2,304.8,122.5,304.8,122.8,304.8z"/>
	<path class="st15" d="M124.8,304.8h51.1c1.7-0.1,3.3-1.2,3.9-2.9l12.2-38.2c0.5-1.1,0-2.3-1.1-2.8c-0.3-0.1-0.6-0.2-0.9-0.2h-51.2
		c-1.8,0.1-3.3,1.3-3.9,2.9l-12.2,38.2c-0.5,1.1,0,2.3,1.1,2.7C124.2,304.8,124.5,304.8,124.8,304.8z"/>
	<polygon class="st15" points="161.4,278.6 154.1,283.8 157.2,289 164.6,283.8 	"/>
	<path class="st7" d="M131,31.5h67.3c4.8,0,8.7,3.9,8.7,8.7v67.2c0,4.8-3.9,8.7-8.7,8.7H131c-4.8,0-8.7-3.9-8.7-8.7V40.2
		C122.2,35.4,126.1,31.5,131,31.5z"/>
	<path class="st5" d="M153.3,22.2h56.3c4,0,7.3,3.3,7.3,7.3v56.3c0,4-3.3,7.3-7.3,7.3h-56.3c-4,0-7.3-3.3-7.3-7.3V29.5
		C146,25.5,149.3,22.2,153.3,22.2z"/>
	<path class="st16" d="M153.3,22.2h56.3c4,0,7.3,3.3,7.3,7.3v56.3c0,4-3.3,7.3-7.3,7.3h-56.3c-4,0-7.3-3.3-7.3-7.3V29.5
		C146,25.5,149.3,22.2,153.3,22.2z"/>
	<path class="st17" d="M187,49.5v-4.3l-2.2-0.2c-0.3-1.4-0.8-2.8-1.6-4l1.4-1.7l-3-3l-1.7,1.4c-1.2-0.8-2.6-1.4-4-1.7l-0.2-2.2h-4.3
		l-0.2,2.3c-1.4,0.3-2.8,0.9-4,1.7l-1.7-1.4l-3,3l1.4,1.7c-0.8,1.2-1.4,2.6-1.6,4l-2.2,0.2v4.3l2.2,0.2c0.3,1.4,0.9,2.8,1.6,4
		l-1.4,1.7l3,3l1.7-1.4c1.2,0.8,2.6,1.4,4,1.7l0.2,2.2h4.3l0.2-2.2c1.4-0.3,2.8-0.9,4-1.7l1.7,1.4l3-3l-1.4-1.8
		c0.8-1.2,1.4-2.6,1.6-4L187,49.5z M173.4,53.2c-3.2,0-5.8-2.6-5.8-5.8s2.6-5.8,5.8-5.8c3.2,0,5.8,2.6,5.8,5.8l0,0
		C179.2,50.6,176.6,53.2,173.4,53.2L173.4,53.2z"/>
	<path class="st17" d="M204.4,61.6v-3.4l-1.7-0.2c-0.2-1.1-0.7-2.2-1.3-3.1l1.1-1.3l-2.3-2.4l-1.3,1.1c-0.9-0.6-2-1.1-3.1-1.3
		l-0.2-1.7h-3.5l-0.2,1.7c-1.1,0.2-2.2,0.7-3.1,1.3l-1.3-1.1l-2.4,2.4l1.1,1.3c-0.6,0.9-1.1,2-1.3,3.1l-1.7,0.2v3.4l1.7,0.2
		c0.2,1.1,0.7,2.2,1.3,3.1l-1.1,1.3l2.4,2.4l1.3-1.1c0.9,0.6,2,1.1,3.1,1.3l0.2,1.7h3.4l0.2-1.7c1.1-0.2,2.2-0.7,3.1-1.3l1.3,1.1
		l2.4-2.4l-1.1-1.3c0.6-0.9,1.1-2,1.3-3.1L204.4,61.6z M193.8,64.5c-2.5,0-4.6-2-4.6-4.6s2-4.6,4.6-4.6c2.5,0,4.6,2,4.6,4.6l0,0
		C198.3,62.5,196.3,64.5,193.8,64.5z"/>
	<path class="st17" d="M187,71.2v-2.8l-1.5-0.1c-0.2-0.9-0.6-1.8-1.1-2.6l0.9-1.1l-2-2l-1.1,0.9c-0.8-0.5-1.7-0.9-2.6-1.1l-0.1-1.5
		h-2.8l-0.1,1.5c-0.9,0.2-1.8,0.6-2.6,1.1l-1.1-0.9l-2,2l0.9,1.1c-0.5,0.8-0.9,1.7-1.1,2.6l-1.5,0.1v2.8l1.5,0.1
		c0.2,0.9,0.6,1.8,1.1,2.6l-0.9,1.1l2,2l1.1-0.9c0.8,0.5,1.7,0.9,2.6,1.1l0.1,1.4h2.8l0.1-1.4c0.9-0.2,1.8-0.6,2.6-1.1l1.1,0.9l2-2
		l-0.9-1.1c0.5-0.8,0.9-1.7,1.1-2.6L187,71.2z M178.1,73.6c-2.1,0-3.8-1.7-3.8-3.8s1.7-3.8,3.8-3.8s3.8,1.7,3.8,3.8l0,0
		C181.9,71.9,180.2,73.6,178.1,73.6L178.1,73.6z"/>
	<path class="st15" d="M156.3,22.2h56.3c4,0,7.3,3.3,7.3,7.3v56.3c0,4-3.3,7.3-7.3,7.3h-56.3c-4,0-7.3-3.3-7.3-7.3V29.5
		C149,25.5,152.3,22.2,156.3,22.2z"/>
	<path class="st7" d="M258.2,113.7h62.2c4.5,0,8.1,3.6,8.1,8.1V184c0,4.5-3.6,8.1-8.1,8.1h-62.2c-4.5,0-8.1-3.6-8.1-8.1v-62.2
		C250.1,117.4,253.7,113.7,258.2,113.7z"/>
	<path class="st5" d="M276.5,109.6h52.1c3.7,0,6.8,3,6.8,6.8v52.1c0,3.7-3,6.8-6.8,6.8h-52.1c-3.7,0-6.8-3-6.8-6.8v-52.1
		C269.8,112.6,272.8,109.6,276.5,109.6z"/>
	<path class="st15" d="M276.5,109.6h52.1c3.7,0,6.8,3,6.8,6.8v52.1c0,3.7-3,6.8-6.8,6.8h-52.1c-3.7,0-6.8-3-6.8-6.8v-52.1
		C269.8,112.6,272.8,109.6,276.5,109.6z"/>
	<path class="st17" d="M305.1,152.9c0,1.3-1.1,2.4-2.4,2.4s-2.4-1.1-2.4-2.4c0-1.3,1.1-2.4,2.4-2.4l0,0
		C304,150.5,305.1,151.6,305.1,152.9z"/>
	<path class="st17" d="M302.5,129.3c-13,0-23.5,10.5-23.5,23.5l0,0h18.8c-0.1-2.4,1.8-4.5,4.2-4.6c0.2,0,0.4,0,0.5,0
		c0.5,0,1,0.1,1.4,0.3l8.8-10.2l-6.2,12.1c0.5,0.7,0.7,1.6,0.7,2.5h18.9C326.1,139.8,315.6,129.3,302.5,129.3
		C302.6,129.3,302.5,129.3,302.5,129.3z"/>
	<path class="st15" d="M279.3,109.6h52.1c3.7,0,6.8,3,6.8,6.8v52.1c0,3.7-3,6.8-6.8,6.8h-52.1c-3.7,0-6.8-3-6.8-6.8v-52.1
		C272.6,112.6,275.6,109.6,279.3,109.6z"/>
	<path class="st7" d="M284.9,51.1h54.6c3.9,0,7.1,3.2,7.1,7.1v54.6c0,3.9-3.2,7.1-7.1,7.1h-54.6c-3.9,0-7.1-3.2-7.1-7.1V58.2
		C277.8,54.3,281,51.1,284.9,51.1z"/>
	<path class="st5" d="M302.2,45.1h45.7c3.3,0,5.9,2.7,5.9,5.9v45.7c0,3.3-2.7,5.9-5.9,5.9h-45.7c-3.3,0-5.9-2.7-5.9-5.9V51
		C296.2,47.7,298.9,45.1,302.2,45.1z"/>
	<path class="st6" d="M302.2,45.1h45.7c3.3,0,5.9,2.7,5.9,5.9v45.7c0,3.3-2.7,5.9-5.9,5.9h-45.7c-3.3,0-5.9-2.7-5.9-5.9V51
		C296.2,47.7,298.9,45.1,302.2,45.1z"/>
	<path class="st17" d="M341.1,59.7c0-1-0.8-1.9-1.9-1.9l0,0H311c-1,0-1.9,0.8-1.9,1.9l0,0v6.2c0,1,0.8,1.9,1.9,1.9l0,0h28.2
		c1,0,1.9-0.8,1.9-1.9l0,0V59.7z M331.8,63.1h-1.6v-1.6h1.6V63.1z M336.1,63.9c-0.9,0-1.6-0.7-1.6-1.6s0.7-1.6,1.6-1.6
		s1.6,0.7,1.6,1.6l0,0C337.7,63.1,337,63.9,336.1,63.9L336.1,63.9L336.1,63.9z"/>
	<path class="st17" d="M341.1,70.7c0-1-0.8-1.9-1.9-1.9l0,0H311c-1,0-1.9,0.8-1.9,1.9l0,0v6.2c0,1,0.8,1.9,1.9,1.9l0,0h28.2
		c1,0,1.9-0.8,1.9-1.9l0,0V70.7z M331.8,74.7h-1.6v-1.6h1.6V74.7z M336.1,75.5c-0.9,0-1.6-0.7-1.6-1.6s0.7-1.6,1.6-1.6
		s1.6,0.7,1.6,1.6l0,0C337.7,74.8,337,75.5,336.1,75.5L336.1,75.5L336.1,75.5z"/>
	<path class="st17" d="M341.1,81.7c0-1-0.8-1.9-1.9-1.9l0,0H311c-1,0-1.9,0.8-1.9,1.9l0,0v6.2c0,1,0.8,1.9,1.9,1.9l0,0h28.2
		c1,0,1.9-0.8,1.9-1.9l0,0V81.7z M331.8,86.3h-1.6v-1.6h1.6V86.3z M336.1,87.1c-0.9,0-1.6-0.7-1.6-1.6s0.7-1.6,1.6-1.6
		s1.6,0.7,1.6,1.6l0,0C337.7,86.4,337,87.1,336.1,87.1L336.1,87.1L336.1,87.1z"/>
	<path class="st15" d="M304.6,45.1h45.7c3.3,0,5.9,2.7,5.9,5.9v45.7c0,3.3-2.7,5.9-5.9,5.9h-45.7c-3.3,0-5.9-2.7-5.9-5.9V51
		C298.7,47.7,301.3,45.1,304.6,45.1z"/>
	<path class="st7" d="M174.5,104.4h67.3c4.8,0,8.7,3.9,8.7,8.7v67.3c0,4.8-3.9,8.7-8.7,8.7h-67.3c-4.8,0-8.7-3.9-8.7-8.7v-67.3
		C165.7,108.3,169.6,104.4,174.5,104.4z"/>
	<path class="st5" d="M192.9,98.4h56.3c4,0,7.3,3.3,7.3,7.3V162c0,4-3.3,7.3-7.3,7.3h-56.3c-4,0-7.3-3.3-7.3-7.3v-56.3
		C185.6,101.7,188.9,98.4,192.9,98.4z"/>
	<path class="st18" d="M192.9,98.4h56.3c4,0,7.3,3.3,7.3,7.3V162c0,4-3.3,7.3-7.3,7.3h-56.3c-4,0-7.3-3.3-7.3-7.3v-56.3
		C185.6,101.7,188.9,98.4,192.9,98.4z"/>
	<path class="st17" d="M201.5,153.4L201.5,153.4c-2.2-2.2-2.2-5.7,0-7.8l0,0l13-12.9c1.2-1.2,3.2-1.2,4.4,0l0,0l3.4,3.4
		c1.2,1.2,1.2,3.2,0,4.4l0,0l-12.9,12.9C207.2,155.5,203.7,155.6,201.5,153.4L201.5,153.4z"/>
	<polygon class="st17" points="225.3,132.1 222.8,129.5 237.4,114.9 240.6,114.2 239.9,117.4 	"/>
	<path class="st17" d="M223.9,135.4l-4.5-4.5c-0.4-0.4-0.4-1,0-1.4l0,0l0,0c0.4-0.4,1-0.4,1.4,0l0,0l4.5,4.5c0.4,0.4,0.4,1,0,1.4
		l0,0l0,0C225,135.8,224.3,135.9,223.9,135.4C223.9,135.5,223.9,135.5,223.9,135.4z"/>
	<path class="st17" d="M217.8,126.8l-6.2-6.2c1.2-3.1-1.2-6.9-3.7-7.9l-0.1,4.8c0,1.1-0.9,2-2,2s-2-0.9-2-2v-4.7
		c-2.4,1-4,3.2-4.1,5.8c0,3.1,2.3,5.6,5.3,6c1,0.2,2.1,0,3-0.4l6.2,6.2L217.8,126.8z"/>
	<path class="st17" d="M238.4,150.3v4.7c2.4-1,4-3.2,4.1-5.8c0-3-2.2-5.6-5.2-6.1c-1-0.2-2-0.1-2.9,0.3l-6.5-6.5l-3.5,3.5l6.4,6.4
		c-1.9,3.8,1,7,3.6,8v-4.7c0-1.1,0.9-2,2-2C237.5,148.3,238.4,149.2,238.4,150.3L238.4,150.3z"/>
	<path class="st15" d="M195.9,98.4h56.3c4,0,7.3,3.3,7.3,7.3V162c0,4-3.3,7.3-7.3,7.3h-56.3c-4,0-7.3-3.3-7.3-7.3v-56.3
		C188.6,101.7,191.9,98.4,195.9,98.4z"/>
	<path class="st5" d="M302.3,85.5h-67.9c-4.9,0-8.8-4-8.8-8.8V8.8c0-4.9,4-8.8,8.8-8.8h67.9c4.9,0,8.8,4,8.8,8.8v67.9
		C311.1,81.6,307.1,85.5,302.3,85.5z"/>
	<path class="st7" d="M216.3,13.5h81.1c5.8,0,10.5,4.7,10.5,10.5v81.1c0,5.8-4.7,10.5-10.5,10.5h-81.1c-5.8,0-10.5-4.7-10.5-10.5
		v-81C205.8,18.2,210.5,13.5,216.3,13.5z"/>
	<path class="st18" d="M302.3,85.5h-67.9c-4.9,0-8.8-4-8.8-8.8V8.8c0-4.9,4-8.8,8.8-8.8h67.9c4.9,0,8.8,4,8.8,8.8v67.9
		C311.1,81.6,307.1,85.5,302.3,85.5z"/>
	<path class="st17" d="M268.3,16.2l-26.2,10.3c0,0,3.3,36,26.2,42.8c22.9-6.8,26.2-42.8,26.2-42.8L268.3,16.2z M267.6,51.1
		c-0.3,0.5-0.9,0.7-1.5,0.7l0,0c-0.6,0-1.1-0.3-1.5-0.8l-9.2-12.7c-0.6-0.8-0.4-1.9,0.4-2.5s1.9-0.4,2.5,0.4l7.8,10.7l12.7-16.7
		c0.6-0.8,1.7-0.9,2.5-0.3c0.8,0.7,0.9,1.8,0.4,2.7L267.6,51.1z"/>
	<path class="st15" d="M305.9,85.5H238c-4.9,0-8.8-4-8.8-8.8V8.8c0-4.9,4-8.8,8.8-8.8h67.9c4.9,0,8.8,4,8.8,8.8v67.9
		C314.7,81.6,310.8,85.5,305.9,85.5z"/>
	<rect x="303.9" y="222.7" class="st5" width="85.3" height="57.5"/>
	<rect x="303.9" y="222.7" class="st8" width="85.3" height="57.5"/>
	<rect x="305.5" y="227.2" class="st9" width="81.9" height="51.2"/>
	<rect x="309.2" y="235.1" class="st1" width="67.3" height="1.5"/>
	<rect x="309.2" y="239.3" class="st1" width="57.3" height="1.5"/>
	<rect x="309.2" y="243.6" class="st1" width="67.3" height="1.5"/>
	<rect x="309.2" y="247.8" class="st1" width="57.3" height="1.5"/>
	<rect x="309.2" y="252.1" class="st1" width="7.3" height="1.5"/>
	<rect x="309.2" y="256.3" class="st1" width="37.3" height="1.5"/>
	<rect x="309.2" y="260.6" class="st1" width="57.3" height="1.5"/>
	<rect x="309.2" y="264.8" class="st1" width="7.3" height="1.5"/>
	<rect x="309.2" y="269.1" class="st1" width="7.3" height="1.5"/>
	<rect x="58.1" y="103" class="st5" width="85.3" height="57.5"/>
	<rect x="58.1" y="103" class="st8" width="85.3" height="57.5"/>
	<rect x="59.7" y="107.5" class="st9" width="81.9" height="51.2"/>
	<rect x="63.4" y="115.4" class="st1" width="67.3" height="1.5"/>
	<rect x="63.4" y="119.7" class="st1" width="57.3" height="1.5"/>
	<rect x="63.4" y="123.9" class="st1" width="67.3" height="1.5"/>
	<rect x="63.4" y="128.2" class="st1" width="57.3" height="1.5"/>
	<rect x="63.4" y="132.4" class="st1" width="7.3" height="1.5"/>
	<rect x="63.4" y="136.7" class="st1" width="37.3" height="1.5"/>
	<rect x="63.4" y="140.9" class="st1" width="57.3" height="1.5"/>
	<rect x="63.4" y="145.2" class="st1" width="7.3" height="1.5"/>
	<rect x="63.4" y="149.4" class="st1" width="7.3" height="1.5"/>
</g>
</svg>
